<?xml version="1.0" standalone="no"?>
<!DOCTYPE svg PUBLIC "-//W3C//DTD SVG 20010904//EN"
 "http://www.w3.org/TR/2001/REC-SVG-20010904/DTD/svg10.dtd">
<svg version="1.0" xmlns="http://www.w3.org/2000/svg"
 width="200.000000pt" height="200.000000pt" viewBox="0 0 200.000000 200.000000"
 preserveAspectRatio="xMidYMid meet">
<metadata>
Created by potrace 1.11, written by Peter Selinger 2001-2013
</metadata>
<g transform="translate(0.000000,200.000000) scale(0.100000,-0.100000)"
fill="#000000" stroke="none">
<path d="M1592 1563 c-31 -6 -100 -75 -104 -105 -2 -13 -11 -24 -23 -26 -30
-6 -38 -18 -32 -45 6 -20 11 -23 36 -19 23 3 30 0 36 -17 9 -30 63 -68 107
-76 57 -11 125 26 149 79 24 53 24 80 -2 132 -30 62 -93 91 -167 77z m86 -72
c44 -24 51 -101 11 -137 -24 -21 -78 -25 -106 -7 -50 33 -47 120 5 147 30 16
57 15 90 -3z"/>
<path d="M812 1460 c-49 -22 -89 -62 -109 -109 -17 -39 -19 -121 -4 -148 6
-12 7 -32 2 -49 -6 -25 -13 -30 -51 -34 -31 -4 -44 -10 -46 -22 -2 -15 6 -18
47 -18 27 0 49 -5 49 -10 0 -6 10 -24 21 -40 21 -27 21 -31 6 -53 -9 -14 -13
-27 -10 -31 14 -13 34 -5 45 19 9 21 17 24 45 21 42 -4 105 26 123 59 7 13 30
33 51 43 l39 19 45 -48 c25 -27 49 -49 52 -49 4 0 15 7 25 16 17 16 15 19 -31
73 l-48 56 18 40 c10 22 19 52 19 67 0 23 6 27 51 38 48 12 50 14 44 39 -8 33
-4 31 -50 21 -57 -13 -58 -13 -83 25 -51 80 -164 113 -250 75z m168 -70 c60
-42 77 -127 39 -190 -40 -65 -69 -75 -86 -30 -17 46 -68 72 -129 66 -49 -5
-52 -4 -56 19 -6 29 14 89 39 117 46 52 134 60 193 18z m-95 -218 c32 -31 27
-48 -11 -43 -33 3 -61 16 -87 39 -17 15 -17 16 4 27 29 16 64 8 94 -23z m-66
-90 c24 -11 50 -18 58 -15 7 3 13 1 13 -5 0 -16 -27 -33 -64 -39 -30 -5 -40
-1 -66 25 -21 21 -30 40 -30 63 l0 32 23 -21 c12 -11 42 -30 66 -40z"/>
<path d="M1298 1396 c-48 -9 -57 -21 -42 -59 8 -21 124 8 124 32 -1 37 -14 42
-82 27z"/>
<path d="M255 1251 c-22 -10 -47 -27 -56 -37 -48 -58 -50 -149 -4 -210 75 -98
231 -78 281 36 16 36 21 40 54 40 29 0 36 4 37 20 2 18 -3 20 -34 18 -22 -1
-38 3 -41 10 -17 52 -53 98 -92 119 -52 28 -91 29 -145 4z m157 -58 c57 -57
47 -153 -19 -194 -88 -54 -193 4 -193 106 0 110 134 165 212 88z"/>
<path d="M1177 983 c-22 -25 -23 -25 18 -69 33 -37 44 -64 27 -64 -5 0 -19
-21 -33 -47 -33 -65 -34 -178 -2 -239 102 -193 376 -194 475 -1 87 172 -41
378 -237 381 -39 1 -75 -6 -102 -18 l-42 -19 -43 48 c-42 45 -44 46 -61 28z
m337 -117 c149 -71 152 -288 4 -364 -200 -103 -393 146 -245 315 58 66 161 87
241 49z"/>
<path d="M676 883 c-19 -41 -19 -40 -1 -47 10 -4 21 7 35 33 19 37 19 39 1 44
-14 3 -23 -5 -35 -30z"/>
<path d="M630 802 c0 -5 -19 -9 -41 -9 -108 2 -123 -152 -18 -178 60 -15 121
52 103 112 -5 16 -8 39 -9 53 0 15 -7 26 -17 28 -10 2 -18 -1 -18 -6z m-8 -59
c34 -31 13 -93 -33 -93 -28 0 -59 35 -54 62 9 44 54 61 87 31z"/>
</g>
</svg>
